<svg xmlns="http://www.w3.org/2000/svg" viewBox="0 0 512 512" role="img" aria-labelledby="title desc">
  <title id="title">100 Acres of Hope logo</title>
  <desc id="desc">A gold cross and green leaves above the words 100 Acres of Hope inside a circular forest green seal.</desc>
  <defs>
    <linearGradient id="gold" x1="0" y1="0" x2="0" y2="1">
      <stop offset="0" stop-color="#f2c95c"/>
      <stop offset="1" stop-color="#d79b2a"/>
    </linearGradient>
    <linearGradient id="leafL" x1="0" y1="0" x2="1" y2="1">
      <stop offset="0" stop-color="#88a95f"/>
      <stop offset="1" stop-color="#4f7139"/>
    </linearGradient>
    <linearGradient id="leafR" x1="1" y1="0" x2="0" y2="1">
      <stop offset="0" stop-color="#94b86b"/>
      <stop offset="1" stop-color="#58783f"/>
    </linearGradient>
  </defs>
  <circle cx="256" cy="256" r="244" fill="#071a14" stroke="url(#gold)" stroke-width="12"/>
  <circle cx="256" cy="256" r="222" fill="none" stroke="#6e8755" stroke-width="4" opacity=".72"/>
  <path d="M246 66h20v60h54v20h-54v122h-20V146h-54v-20h54V66Z" fill="url(#gold)"/>
  <circle cx="256" cy="136" r="8" fill="#fff8dc" stroke="#c48a1f" stroke-width="3"/>
  <path d="M238 273c-54-7-95-40-105-96 43-3 80 10 105 37 20 22 29 48 29 74-10-6-19-11-29-15Z" fill="url(#leafL)"/>
  <path d="M274 273c54-7 95-40 105-96-43-3-80 10-105 37-20 22-29 48-29 74 10-6 19-11 29-15Z" fill="url(#leafR)"/>
  <path d="M166 196c30 18 54 42 72 72M346 196c-30 18-54 42-72 72" fill="none" stroke="#d6e5c7" stroke-opacity=".55" stroke-width="5" stroke-linecap="round"/>
  <path d="M128 292c42-16 85-24 128-24s86 8 128 24" fill="none" stroke="#5d7e45" stroke-width="8" stroke-linecap="round"/>
  <text x="256" y="365" text-anchor="middle" fill="#fff8e9" font-family="Georgia, 'Times New Roman', serif" font-size="72" font-weight="700" letter-spacing="1">100 ACRES</text>
  <path d="M107 401h58M347 401h58" stroke="url(#gold)" stroke-width="5" stroke-linecap="round"/>
  <text x="256" y="423" text-anchor="middle" fill="#78915d" font-family="Georgia, 'Times New Roman', serif" font-size="48" font-style="italic">of Hope</text>
</svg>