<svg xmlns="http://www.w3.org/2000/svg" viewBox="0 0 160 160" role="img" aria-labelledby="title desc">
  <title id="title">100 Acres of Hope cacao leaf and cross emblem</title>
  <desc id="desc">A gold Christian cross rising through two green cacao leaves inside a circular seal.</desc>
  <defs>
    <linearGradient id="leafA" x1="0" y1="0" x2="1" y2="1"><stop stop-color="#6f9a74"/><stop offset="1" stop-color="#244f3d"/></linearGradient>
    <linearGradient id="leafB" x1="1" y1="0" x2="0" y2="1"><stop stop-color="#8aae7d"/><stop offset="1" stop-color="#315f49"/></linearGradient>
    <linearGradient id="gold" x1="0" y1="0" x2="0" y2="1"><stop stop-color="#f1cb6d"/><stop offset="1" stop-color="#d4962d"/></linearGradient>
  </defs>
  <circle cx="80" cy="80" r="73" fill="#10251d" stroke="#e1ad42" stroke-width="3"/>
  <circle cx="80" cy="80" r="62" fill="none" stroke="#fffdf8" stroke-opacity=".16"/>
  <path d="M76 112C54 109 37 95 32 70c18-2 35 3 46 15 8 9 11 19 11 30-4-2-8-3-13-3Z" fill="url(#leafA)"/>
  <path d="M84 112c22-3 39-17 44-42-18-2-35 3-46 15-8 9-11 19-11 30 4-2 8-3 13-3Z" fill="url(#leafB)"/>
  <path d="M48 76c13 8 23 18 31 31M112 76c-13 8-23 18-31 31" fill="none" stroke="#d9ead8" stroke-opacity=".65" stroke-width="2" stroke-linecap="round"/>
  <path d="M74 37h12v24h19v12H86v49H74V73H55V61h19V37Z" fill="url(#gold)"/>
  <circle cx="80" cy="80" r="4" fill="#fff4c8"/>
</svg>